<?xml version="1.0" encoding="UTF-8"?> <svg xmlns="http://www.w3.org/2000/svg" xmlns:xlink="http://www.w3.org/1999/xlink" width="778" height="616" viewBox="0 0 778 616"><defs><clipPath id="clip-path"><rect id="Rectángulo_160" data-name="Rectángulo 160" width="778" height="616" transform="translate(970 177)" fill="#fff" stroke="#707070" stroke-width="1"></rect></clipPath></defs><g id="ilust-contact-center" transform="translate(-970 -177)"><g id="Enmascarar_grupo_16" data-name="Enmascarar grupo 16" clip-path="url(#clip-path)"><g id="Grupo_166" data-name="Grupo 166" transform="translate(0 -55)"><path id="Trazado_879" data-name="Trazado 879" d="M337.278-3756.028c-17.328,24.638-30.7,58.157-21.42,89.1,9.249,30.844,38.828,49.863,51.754,79.161,7.306,16.559,7.5,34.767,7.778,52.542.362,23.269-4.184,47.978,11.542,67.642,9.3,11.631,23.338,18.5,37.532,23.018,28.505,9.067,58.367,13.324,83.687,30.449,41.6,28.135,92.679,37.972,142.251,34.932a322.083,322.083,0,0,0,74.147-13.622c27.978-8.54,52.845-23.655,81.015-31.751,48.822-14.033,115.58-14.226,144.15-63.623,19.236-33.256,25.9-74.36,10.936-110.595-7.115-17.229-20.7-30.388-28.43-47.3-10.687-23.369-13.569-50.016-6.429-74.841q.445-1.533.929-3.051c7.458-23.21,22.474-43.168,28.685-66.8,12.82-48.781-15.51-100.357-52.75-131.711-15.475-13.029-32.765-23.873-51.6-30.055-26.17-8.591-53.8-7.843-81.447-7.1-27.222.736-54.456,1.471-80.3-6.711-39.969-12.651-72.781-45.539-113.5-55.049-31.295-7.308-65.112.493-91.7,19.594s-45.874,48.994-54.669,81.915c-8.149,30.5-7.894,64.01-22.344,91.722-12.364,23.706-35.277,36.5-53.881,53.7A115.957,115.957,0,0,0,337.278-3756.028Z" transform="translate(656.466 4316.474)" fill="#edf7e8"></path><path id="Trazado_880" data-name="Trazado 880" d="M737.525-3527.431l-.712-1.221c20.245-11.8,43.824-12.721,66.628-13.606,9.338-.363,18.994-.736,28.164-1.872,42.905-5.312,74.532-32.939,84.6-73.9,9.184-37.374-1.076-77.365-26.778-104.368-1.3-1.368-2.635-2.756-3.925-4.1-8.931-9.288-18.166-18.895-24.747-30.2a65.123,65.123,0,0,1-8.138-23.121,75.1,75.1,0,0,1,.366-23.814c2.507-14.8,9.082-30.111,19.015-44.275,2.626-3.746,5.4-7.5,8.082-11.135,8.6-11.649,17.5-23.7,23.134-37.482,6.746-16.495,8.321-37.614,4.436-59.465-6.336-35.641-26.436-67.728-53.771-85.832-35.462-23.486-72.96-18.378-112.659-12.971-16.551,2.254-33.551,4.57-50.356,4.57-4.368,0-8.721-.156-13.051-.51a124.531,124.531,0,0,1-22.842-4.053,124.321,124.321,0,0,1-21.83-8.291,117.5,117.5,0,0,1-37.378-28.783c-29.535-34.291-69.958-53.11-108.787-53.11a111.308,111.308,0,0,0-48.7,10.933c-30.7,14.857-55.926,43.056-69.2,77.366-7.55,19.519-9.073,40.707-10.543,61.2-1.379,19.194-2.8,39.041-9.118,57.8a119.809,119.809,0,0,1-15.251,30.148,98.559,98.559,0,0,1-23.456,24.048c-23.606,16.744-39.658,32.819-50.517,50.587-15.684,25.663-19.188,56.043-9.144,79.286,7.189,16.638,21.149,27.272,34.649,37.555,7.013,5.343,14.265,10.867,20.415,17.136,6.92,7.056,11.7,14.352,14.621,22.308,2.417,6.587,3.573,14.217,3.535,23.328-.045,10.617-2.008,21.486-3.906,32-3.222,17.841-6.554,36.291-.562,53.953,3.917,11.547,13.765,19.937,29.269,24.935,10.886,3.511,24.22,5.33,40.763,5.565,4.892.069,9.9.028,14.753-.013,19.108-.159,38.868-.326,57.033,6.183l-.478,1.332c-17.927-6.424-37.558-6.26-56.544-6.1-4.855.042-9.877.084-14.784.013-16.686-.236-30.156-2.079-41.179-5.632-15.953-5.144-26.1-13.834-30.174-25.828-6.108-18.009-2.744-36.64.51-54.659,1.888-10.453,3.84-21.262,3.884-31.753.038-8.94-1.09-16.41-3.448-22.835-6.354-17.318-20.057-27.756-34.565-38.806-13.645-10.4-27.754-21.141-35.091-38.119a71.465,71.465,0,0,1-5.326-20.141,84.039,84.039,0,0,1,.272-20.878,103.059,103.059,0,0,1,14.29-39.566c10.962-17.937,27.138-34.143,50.906-51,16.847-11.951,30.765-31.449,38.185-53.493,6.257-18.59,7.676-38.346,9.048-57.452,1.479-20.594,3.009-41.89,10.636-61.606,13.4-34.64,38.878-63.118,69.9-78.128a111.64,111.64,0,0,1,42.6-10.984,126.356,126.356,0,0,1,42.965,5.218c27.7,8.185,53.84,25.336,73.613,48.293,20.022,23.246,49.579,38.059,81.094,40.639,20.837,1.7,42.323-1.221,63.1-4.052,19.116-2.6,38.88-5.295,57.91-4.313a119.623,119.623,0,0,1,28.27,4.66A101.335,101.335,0,0,1,854.659-4043c13.691,9.068,25.95,21.966,35.455,37.3a141.951,141.951,0,0,1,18.927,49.466,130.26,130.26,0,0,1,1.91,30.5,93.131,93.131,0,0,1-6.43,29.744c-5.7,13.948-14.65,26.067-23.3,37.787-2.679,3.625-5.447,7.375-8.063,11.106-21.692,30.93-25.868,64.458-11.178,89.686,6.5,11.155,15.67,20.7,24.544,29.93,1.291,1.342,2.627,2.731,3.931,4.1A110.843,110.843,0,0,1,917.341-3674a117.025,117.025,0,0,1,.236,56.3,102.746,102.746,0,0,1-11.763,28.709,94.329,94.329,0,0,1-19.015,22.569c-14.9,12.886-33.923,21.077-55.02,23.69-9.231,1.142-18.917,1.517-28.284,1.881C780.865-3539.966,757.465-3539.056,737.525-3527.431Z" transform="translate(714.338 4419.22)" fill="#ecf6e8"></path><path id="Trazado_881" data-name="Trazado 881" d="M2998.334-4581.327c.46-2.792-3.235-8.424-7.266-8.333-1.6.036-3.173.451-4.774.374-4.266-.208-6.478-3.531-8.122-6.281s-4.919-5.887-9.077-5.189c-5.987,1-9,8.9-15.812,2.974-4.454-3.883-4.786-9.311-9.831-13.076-3.463-2.584-9.093-4.116-13.734-2.688-6.058,1.865-8.31,7.871-14.761,8.916-7.144,1.158-12.281-4.278-14.562-8.2-2.768-4.755-3.795-9.9-6.166-14.739-2.194-4.481-6.607-10.483-14.513-10.353-6.685.11-9.631,4.342-12.913,7.7-4.266,4.37-13.136,20.058-23.082,18.167-3.878-.738-5.814-3.818-9.314-5.2-5.625-2.218-12.8.831-16.186,4.664s-4.733,8.463-8.563,12.089a8.865,8.865,0,0,1-3.75,2.25c-5.351,1.465-10.331-3.039-16.059-3.375a13.343,13.343,0,0,0-9.893,3.893c-2.272,2.265-3.511,4.942-5.251,7.426a5.523,5.523,0,0,1-1.909,1.86c-2.512,1.348-6.048.212-9.126-.317-7.606-1.31-16.245,2.181-18.391,7.431Z" transform="translate(-1385.839 4831.842)" fill="#ecf6e8"></path><path id="Trazado_882" data-name="Trazado 882" d="M130.088-3699.394c.237-1.436-1.662-4.331-3.735-4.284-.824.019-1.631.233-2.454.192-2.193-.107-3.33-1.814-4.176-3.229s-2.529-3.026-4.666-2.667c-3.078.517-4.629,4.578-8.127,1.529-2.29-2-2.462-4.786-5.055-6.722a8.463,8.463,0,0,0-7.06-1.381c-3.114.958-4.273,4.045-7.588,4.583-3.673.595-6.314-2.2-7.486-4.214-1.423-2.446-1.951-5.089-3.17-7.577-1.128-2.3-3.4-5.389-7.461-5.322-3.437.056-4.951,2.231-6.638,3.958-2.194,2.246-6.753,10.312-11.866,9.34-1.994-.38-2.989-1.963-4.788-2.672-2.892-1.14-6.579.427-8.321,2.4s-2.433,4.35-4.4,6.214a4.557,4.557,0,0,1-1.928,1.158c-2.75.752-5.311-1.564-8.255-1.736a6.857,6.857,0,0,0-5.086,2,25.292,25.292,0,0,0-2.7,3.817,2.846,2.846,0,0,1-.981.956c-1.292.693-3.109.109-4.692-.164-3.91-.672-8.352,1.123-9.454,3.82Z" transform="translate(919.113 4068.275)" fill="#ecf6e8"></path></g><g id="Grupo_169" data-name="Grupo 169" transform="translate(42 -5152)"><path id="Trazado_883" data-name="Trazado 883" d="M421.983-401.709h92.135a31.526,31.526,0,0,0,31.229-27.185L577.156-657.67a31.53,31.53,0,0,0-31.23-35.87H432.585a31.531,31.531,0,0,0-31.5,30.068L390.487-434.7A31.529,31.529,0,0,0,421.983-401.709Z" transform="translate(996.976 6416.795)" fill="#b9b9b5"></path><path id="Trazado_884" data-name="Trazado 884" d="M831.212-903.016c-22.439,17.9-26.142,52.283-26.142,52.283s8.958,13.978,17.158,13.978,34.29-14.91,34.29-24.228S840.909-910.75,831.212-903.016Z" transform="translate(460.345 6496.508)" fill="#f1b891"></path><path id="Trazado_885" data-name="Trazado 885" d="M845.155-837.431a1.565,1.565,0,0,0,1.26-.64l.3-.416a29.083,29.083,0,0,0,5.945-12.6c.683-3.206-.056-7.113-.851-11.251-.839-4.4-1.708-8.964-.8-12.611a1.552,1.552,0,0,0-1.131-1.882A1.549,1.549,0,0,0,848-875.7c-1.081,4.311-.143,9.213.758,13.953.733,3.821,1.416,7.43.863,10.02-1.2,5.635-3.062,8.188-5.417,11.418l-.3.416a1.556,1.556,0,0,0,.342,2.168A1.529,1.529,0,0,0,845.155-837.431Z" transform="translate(439.998 6486.237)" fill="#ec896d"></path><path id="Trazado_886" data-name="Trazado 886" d="M591.586-517.561c3.95,41.809,5.115,81.431.073,90.719-11.8,21.743-130.1-39.007-130.1-39.007s45.4-4.92,47.3-9.679c.569-1.423-1.243-12.12-4.065-26.415C498.176-535.465,587.121-564.831,591.586-517.561Z" transform="translate(935.255 6359.485)" fill="#f1b891"></path><path id="Trazado_887" data-name="Trazado 887" d="M776.666-409.971H595.575V-642.66H776.666Z" transform="translate(670.343 6397.524)" fill="#f1b891"></path><path id="Trazado_888" data-name="Trazado 888" d="M795.838-715.693c13.616,20.755,27.8,127.3,27.8,127.3l-82.624,13.307S766.485-382.768,764-374.692s-97.628-66.348-119.409-68.336-94.652-16.9-106.307-13.841S533.843-613.1,533.843-613.1s-59.342,3.187-79.222-24.3c-13.052-18.047,62.666-119.991,70.742-128.688s92.282-10.126,92.282-10.126h65.217S773.22-750.178,795.838-715.693Z" transform="translate(711.873 6448.112)" fill="#ffc73c"></path><path id="Trazado_889" data-name="Trazado 889" d="M965.116-818.26s-79.041,49.115-93.951,77.48-12.425,83.171-4.97,87.451,57.665-4.349,67.878-13.549c21.582-19.445,48.2-137.4,48.2-137.4Z" transform="translate(300.299 6464.035)" fill="#f1b891"></path><path id="Trazado_890" data-name="Trazado 890" d="M719.483-399.943c3.221-14.524-22.621-47.232-63.4-54.619-33-5.976-91.524-16.618-99.882-16.649-20.95-.081-70.75,3.883-78.795,12.425s-12.7,17.575-10.232,19.283c3.827,2.665,11.475-11.518,14.524-10.381,3.28,1.224-1.224,14.09.988,20.3s14.828,4.721,17.7,3.727,5.471-14.363,9.812-15.835c3.335-1.137,14.876,3.858,23.22,3.616,9.54-.273,19.282-9.449,22.364-9.94,6.82-1.087,48.351,62.825,70.906,68.708C658.338-371.062,714.339-376.746,719.483-399.943Z" transform="translate(807.432 6332.585)" fill="#f1b891"></path><path id="Trazado_891" data-name="Trazado 891" d="M840.134-899.051c-7.623,1.528-15.947-7.964-18.587-21.19s1.4-25.179,9.027-26.7S847.764-900.573,840.134-899.051Z" transform="translate(464.195 6512.789)" fill="#53869c"></path><path id="Trazado_892" data-name="Trazado 892" d="M711.11-933.454c-8.616-6.324-3.647-26.092-13.066-28.819-11.7-3.38-20.65-7.716-21.531-16.152-2.7-25.675,35.615-61.291,76.616-56.737,30.5,3.392,41.9,33.511,35.067,70.3C777.563-907.6,748.7-905.858,711.11-933.454Z" transform="translate(606.701 6546.341)" fill="#212a53"></path><path id="Trazado_893" data-name="Trazado 893" d="M733.13-902.42c4.65,32.64,13.747,66.261,17.89,88.526,3.006,16.152-67.322,20.786-73.811,5.69-4.4-10.238,8.493-60.284,8.493-60.284Z" transform="translate(645.75 6495.912)" fill="#f1b891"></path><path id="Trazado_894" data-name="Trazado 894" d="M696-954.993c-6.8,24.831-.677,87.408,21.675,87.408,23.191,0,54.641-26.974,56.946-36.181.916-3.653,1.723-14.667,2.257-19.153,5.71,0,15.226-22.2,8.247-25.377s-11.42,5.753-11.42,5.753-1.589,16.643-3.433,19.83a4.2,4.2,0,0,1-7.765-1.242c-2.744-10.654,2.8-43.176-8.387-45.35C744.909-971.1,700.074-969.895,696-954.993Z" transform="translate(598.67 6521.486)" fill="#f1b891"></path><path id="Trazado_895" data-name="Trazado 895" d="M918.383-543.758h.006a2.177,2.177,0,0,0,2.168-2.181c-.012-3.212-.031-6.7-.05-10.232-.062-10.536-.124-21.433.05-26.968a2.178,2.178,0,0,0-2.106-2.243,2.177,2.177,0,0,0-2.243,2.106c-.174,5.616-.112,16.556-.05,27.129.019,3.535.037,7.014.05,10.219A2.175,2.175,0,0,0,918.383-543.758Z" transform="translate(327.333 6375.829)" fill="#f3bb30"></path><path id="Trazado_896" data-name="Trazado 896" d="M620.691-508.8a2.165,2.165,0,0,0,1.441-.547,2.173,2.173,0,0,0,.186-3.069c-3.4-4.417-6.122-61.1-3.932-81.959a2.171,2.171,0,0,0-1.935-2.386,2.169,2.169,0,0,0-2.39,1.932c-.991,9.437-1.06,28.583-.172,47.642.714,15.32,2.191,34.286,5.173,37.653A2.173,2.173,0,0,0,620.691-508.8Z" transform="translate(813.153 6380.143)" fill="#f3bb30"></path><path id="Trazado_897" data-name="Trazado 897" d="M687.879-918.626c7.777-.124,13.908-11.157,13.7-24.638s-6.689-24.321-14.467-24.2S680.1-918.5,687.879-918.626Z" transform="translate(691.959 6520.549)" fill="#53869c"></path><path id="Trazado_898" data-name="Trazado 898" d="M701.973-1005.406a66.417,66.417,0,0,1,6.181-7.5c7.654-19.415,24.137-25.869,40.19-22.732,18.183,3.541,35.814,19.383,39.467,42.618l3.684-.578c-3.411-21.713-17.879-37.144-34.336-43.406C734.982-1045.464,709.186-1037.276,701.973-1005.406Z" transform="translate(589.416 6548.07)" fill="#53869c"></path><path id="Trazado_899" data-name="Trazado 899" d="M704.984-854.62a52.863,52.863,0,0,0,36.746-14.158c8.755-8.126,15.034-19.351,16.8-30.018l-2.451-.4c-3.128,18.923-22.495,44.443-55.766,41.915l-.188,2.479Q702.619-854.62,704.984-854.62Z" transform="translate(623.534 6494.693)" fill="#53869c"></path><path id="Trazado_900" data-name="Trazado 900" d="M787.324-833.168c0,2.783,3.906,5.038,8.724,5.038s8.725-2.255,8.725-5.038-3.906-5.032-8.725-5.032S787.324-835.945,787.324-833.168Z" transform="translate(523.115 6471.588)" fill="#212a53"></path><path id="Trazado_901" data-name="Trazado 901" d="M886.012-652.811l58.137,184.823a3.4,3.4,0,0,0,3.243,2.379h173.67a3.4,3.4,0,0,1,3.4,3.4,3.4,3.4,0,0,1-3.4,3.4H689.335a6.21,6.21,0,0,1-5.927-4.342L624.162-651.507a4.348,4.348,0,0,1,4.15-5.653H880.085A6.216,6.216,0,0,1,886.012-652.811Z" transform="translate(304.916 6403.016)" fill="#005d74"></path><g id="Grupo_167" data-name="Grupo 167"><path id="Trazado_902" data-name="Trazado 902" d="M212-821.171a6.534,6.534,0,0,0,6.532-6.535v-32.658A6.534,6.534,0,0,0,212-866.9a6.534,6.534,0,0,0-6.532,6.535v32.658A6.534,6.534,0,0,0,212-821.171Z" transform="translate(1470.83 6482.458)" fill="#ffc73c"></path><path id="Trazado_903" data-name="Trazado 903" d="M185.708-827.546H218.37a6.534,6.534,0,0,0,6.532-6.535,6.533,6.533,0,0,0-6.532-6.529H185.708a6.533,6.533,0,0,0-6.532,6.529A6.534,6.534,0,0,0,185.708-827.546Z" transform="translate(1480.788 6472.501)" fill="#ffc73c"></path></g><g id="Grupo_168" data-name="Grupo 168" transform="translate(-606.333 -325)"><path id="Trazado_904" data-name="Trazado 904" d="M71.069-617.915c.025.591.038,1.181.038,1.767,0,27.136-9.38,44.421-17.249,54.146a59.126,59.126,0,0,1-15.931,14.039,59.694,59.694,0,0,1-16.1-14.237C14.034-571.911,4.74-589.151,4.74-616.148c0-.586.014-1.177.039-1.767a47.614,47.614,0,0,0,33.145-7.457A47.619,47.619,0,0,0,71.069-617.915ZM37.924-542.9a2.393,2.393,0,0,0,1.023-.23c.382-.185,9.476-4.612,18.6-15.883,8.351-10.32,18.3-28.61,18.3-57.13a46.585,46.585,0,0,0-.251-4.8,2.375,2.375,0,0,0-.955-1.668,2.357,2.357,0,0,0-1.875-.41,42.975,42.975,0,0,1-33.484-7.15,2.367,2.367,0,0,0-2.719,0,42.993,42.993,0,0,1-33.484,7.15,2.359,2.359,0,0,0-1.875.41,2.375,2.375,0,0,0-.955,1.668,46.584,46.584,0,0,0-.251,4.8c0,28.52,9.954,46.81,18.3,57.13,9.121,11.271,18.214,15.7,18.6,15.883A2.393,2.393,0,0,0,37.924-542.9Z" transform="translate(1712.484 6392.957)" fill="#ffc73c"></path><path id="Trazado_905" data-name="Trazado 905" d="M55.762-539.338a54.624,54.624,0,0,0,9.65-9.68c7.708-9.9,12.276-22.19,13.633-36.612a56.357,56.357,0,0,1-23.274-6.51A56.361,56.361,0,0,1,32.5-585.63c1.4,14.86,6.2,27.438,14.324,37.483A54.467,54.467,0,0,0,55.762-539.338Z" transform="translate(1694.638 6371.835)" fill="#f3e8ca" opacity="0.28"></path><path id="Trazado_906" data-name="Trazado 906" d="M73.539-586.344c-1.575,12.926-5.9,24.012-12.885,32.988a53.364,53.364,0,0,1-7.778,8.088,52.553,52.553,0,0,1-7.1-7.258C38.4-561.638,33.85-573,32.227-586.344a58.263,58.263,0,0,0,20.656-6.019A58.256,58.256,0,0,0,73.539-586.344Zm-20.664,46.49a2.369,2.369,0,0,0,1.448-.5,56.714,56.714,0,0,0,10.072-10.1C72.368-560.7,77.119-573.428,78.517-588.3a2.367,2.367,0,0,0-.564-1.767,2.361,2.361,0,0,0-1.665-.821,53.712,53.712,0,0,1-22.3-6.24,2.378,2.378,0,0,0-2.216,0,53.714,53.714,0,0,1-22.3,6.24,2.358,2.358,0,0,0-1.666.816,2.377,2.377,0,0,0-.564,1.772c1.438,15.324,6.431,28.362,14.841,38.754a56.653,56.653,0,0,0,9.335,9.193A2.372,2.372,0,0,0,52.875-539.854Z" transform="translate(1697.525 6374.722)" fill="#ffc73c"></path><path id="Trazado_907" data-name="Trazado 907" d="M56.714-537.517a2.367,2.367,0,0,0,1.9-.951c2.954-3.94,8.277-12.921,9.481-21.6a2.372,2.372,0,0,0-2.022-2.673,2.373,2.373,0,0,0-2.673,2.024c-.932,6.713-5.1,14.765-8.579,19.4a2.371,2.371,0,0,0,.474,3.318A2.357,2.357,0,0,0,56.714-537.517Z" transform="translate(1695.715 6355.699)" fill="#f6f5f1"></path></g><path id="Trazado_908" data-name="Trazado 908" d="M1315.377-843.62a11.576,11.576,0,0,1,11.561,11.561,11.577,11.577,0,0,1-11.561,11.567,11.578,11.578,0,0,1-11.567-11.567A11.577,11.577,0,0,1,1315.377-843.62Zm0,32.658a21.116,21.116,0,0,0,21.091-21.1,21.115,21.115,0,0,0-21.091-21.091,21.116,21.116,0,0,0-21.1,21.091A21.117,21.117,0,0,0,1315.377-810.962Z" transform="translate(-323.518 6477.25)" fill="#6bb549"></path></g></g><g id="Grupo_128" data-name="Grupo 128"><path id="Trazado_186" data-name="Trazado 186" d="M3196.155-3710.669H3389.2a20.064,20.064,0,0,0,20-20.006v-101.51a20.064,20.064,0,0,0-20-20h-193.05a20.064,20.064,0,0,0-20,20v101.51A20.065,20.065,0,0,0,3196.155-3710.669Z" transform="translate(-1698.15 4105.137)" fill="#6bb549"></path><path id="Trazado_187" data-name="Trazado 187" d="M3367.4-3078.037v-65.033l50.935,27.782Z" transform="translate(-1858.725 3509.756)" fill="#6bb549"></path><path id="Trazado_188" data-name="Trazado 188" d="M3506.67-3435.923H3403.645a6.193,6.193,0,0,1-6.175-6.173,6.193,6.193,0,0,1,6.175-6.174H3506.67a6.192,6.192,0,0,1,6.174,6.174A6.192,6.192,0,0,1,3506.67-3435.923Z" transform="translate(-1883.972 3766.004)" fill="#fff"></path><path id="Trazado_189" data-name="Trazado 189" d="M4203.751-3435.923h-25.467a6.192,6.192,0,0,1-6.174-6.173,6.192,6.192,0,0,1,6.174-6.174h25.467a6.192,6.192,0,0,1,6.173,6.174A6.191,6.191,0,0,1,4203.751-3435.923Z" transform="translate(-2534.363 3766.004)" fill="#fff"></path><path id="Trazado_190" data-name="Trazado 190" d="M3694.735-3623.09H3797.76a6.192,6.192,0,0,1,6.174,6.174,6.192,6.192,0,0,1-6.174,6.174H3694.735a6.193,6.193,0,0,1-6.175-6.174A6.193,6.193,0,0,1,3694.735-3623.09Z" transform="translate(-2128.372 3912.783)" fill="#fff"></path><path id="Trazado_191" data-name="Trazado 191" d="M3403.645-3623.09h25.466a6.192,6.192,0,0,1,6.174,6.174,6.192,6.192,0,0,1-6.174,6.174h-25.466a6.193,6.193,0,0,1-6.175-6.174A6.193,6.193,0,0,1,3403.645-3623.09Z" transform="translate(-1883.972 3912.783)" fill="#fff"></path><path id="Trazado_192" data-name="Trazado 192" d="M3472.328-3276.111h-68.683a6.194,6.194,0,0,1-6.175-6.176,6.193,6.193,0,0,1,6.175-6.173h68.683a6.191,6.191,0,0,1,6.173,6.173A6.193,6.193,0,0,1,3472.328-3276.111Z" transform="translate(-1883.972 3631.826)" fill="#fff"></path></g></g></svg> 