<svg width="526" height="407" viewBox="0 0 526 407" fill="none" xmlns="http://www.w3.org/2000/svg">
<path d="M35.7626 361.208C76.9991 361.208 505.045 361.208 520.839 361.208C536.633 361.208 508.367 369.452 499.08 378.711C489.816 387.971 490.358 391.833 467.288 398.834C417.691 413.898 396.474 384.403 317.73 396.011C284.176 400.957 241.403 410.42 207.645 405.384C179.22 401.16 172.329 381.783 150.841 380.202C117.874 377.785 101.425 380.157 71.3276 378.689C45.569 377.469 -5.47389 361.208 35.7626 361.208Z" fill="url(#paint0_linear)"/>
<path d="M406.146 361.208C404.587 307.841 416.676 243.068 458.726 206.323C465.482 200.428 473.729 192.817 483.309 193.517C487.761 193.834 489.975 198.938 490.653 202.709C491.85 209.462 490.675 216.396 489.026 223.058C479.92 259.803 449.891 324.147 442.208 361.208" fill="url(#paint1_linear)"/>
<path d="M476.847 207.565C457.347 232.566 444.174 261.859 436.311 292.483C430.73 314.21 426.753 337.788 428.538 360.305C428.606 361.095 429.781 361.118 429.781 360.305C429.6 306.35 445.417 251.786 477.57 208.13C477.864 207.723 477.163 207.181 476.847 207.565Z" fill="#92D0FF"/>
<path d="M442.208 361.208C447.834 326.676 453.754 298.468 473.548 269.605C481.705 257.726 497.386 243.068 509.881 244.265C523.28 245.575 513.767 265.811 505.814 280.897C495.217 301.043 487.489 322.973 483.829 345.422C484.936 338.646 489.636 319.382 503.509 310.822C507.576 308.315 517.609 306.847 517.609 315.181C517.609 329.838 503.351 347.432 499.781 361.186" fill="url(#paint2_linear)"/>
<path d="M505.43 254.586C494.788 268.115 487.58 284.805 480.982 300.569C473.119 319.291 465.097 339.73 463.764 360.215C463.742 360.712 464.578 360.847 464.645 360.328C467.492 340.34 474.113 321.008 481.773 302.398C488.393 286.318 495.646 269.131 506.266 255.219C506.605 254.744 505.791 254.112 505.43 254.586Z" fill="#92D0FF"/>
<path d="M509.564 316.107C498.063 327.67 492.708 345.399 490.019 361.073C489.907 361.773 490.923 362.066 491.081 361.366C494.923 345.738 498.967 328.935 510.22 316.762C510.626 316.31 509.994 315.678 509.564 316.107Z" fill="#92D0FF"/>
<path d="M125.513 361.208C117.378 293.884 123.276 264.546 130.958 245.891C134.528 237.196 139.657 228.591 146.933 222.471C176.013 197.944 175.132 245.643 173.776 260.097C170.658 293.025 162.411 328.235 161.665 361.231" fill="url(#paint3_linear)"/>
<path d="M99.3014 361.208C98.3749 340.024 88.9301 319.359 76.8642 302.262C64.7531 285.076 48.0777 271.367 37.1642 253.299C31.312 243.633 22.0705 228.411 35.7407 220.484C50.9022 211.698 73.1812 220.913 85.3826 230.963C98.6461 241.894 107.368 257.387 114.644 272.699C127.5 299.733 130.076 331.284 130.28 361.208" fill="url(#paint4_linear)"/>
<path d="M102.194 361.208C102.262 339.64 91.2576 316.897 73.9044 300.049C62.5616 289.05 49.0044 278.729 33.5266 274.19C25.5052 271.841 3.04546 268.092 0.808527 281.439C-0.0500957 286.498 4.51416 295.984 15.4503 304.656C30.6569 316.694 72.6391 335.394 77.7004 361.208" fill="url(#paint5_linear)"/>
<path d="M11.0451 282.501C48.2596 293.025 79.9834 322.408 88.0274 360.824C88.1629 361.434 89.0668 361.163 88.9538 360.576C82.7175 321.64 48.0563 291.806 11.2485 281.71C10.7514 281.552 10.5254 282.343 11.0451 282.501Z" fill="#92D0FF"/>
<path d="M42.9046 229.246C61.5457 239.432 75.8034 257.138 86.2198 275.296C101.291 301.562 108.363 330.742 111.007 360.712C111.097 361.728 112.656 361.75 112.611 360.712C111.504 330.697 102.805 300.433 87.5981 274.483C76.8879 256.212 62.3591 238.551 43.3339 228.524C42.8594 228.253 42.4301 228.975 42.9046 229.246Z" fill="#92D0FF"/>
<path d="M157.597 221.793C148.627 242.865 144.334 265.63 141.735 288.305C139.001 312.2 137.826 336.659 139.069 360.689C139.114 361.57 140.447 361.592 140.47 360.689C140.967 314.074 141.554 266.33 158.569 222.2C158.772 221.658 157.823 221.251 157.597 221.793Z" fill="#92D0FF"/>
<path d="M81.6325 361.208C79.0341 349.577 76.7519 337.449 69.8152 327.444C65.2735 320.895 56.032 311.771 47.8073 311.906C41.684 312.019 40.3056 317.891 41.0061 323.198C42.8815 337.088 50.5865 341.334 53.5691 356.33C52.0778 350.639 42.9041 330.945 34.8376 338.488C25.9802 346.777 39.1985 361.231 39.1985 361.231" fill="url(#paint6_linear)"/>
<path d="M37.9788 342.44C42.7691 348.358 46.6781 354.32 49.5928 361.366C49.8414 361.931 50.7 361.75 50.5419 361.095C48.8246 353.71 43.5825 347.319 38.5437 341.876C38.1822 341.469 37.6625 342.034 37.9788 342.44Z" fill="#92D0FF"/>
<path d="M50.7226 320.714C61.3425 332.097 65.8163 347.251 71.5103 361.344C71.7363 361.909 72.6401 361.705 72.4594 361.073C68.6859 346.754 61.7944 330.719 51.2875 320.127C50.926 319.766 50.3611 320.33 50.7226 320.714Z" fill="#92D0FF"/>
<path d="M318.002 251.447H322.521" stroke="#B3D3F4" stroke-miterlimit="10"/>
<path d="M331.536 251.447H469.571C493.025 251.447 512.028 232.454 512.028 209.011C512.028 185.568 493.025 166.574 469.571 166.574H145.983C133.556 166.574 123.479 156.502 123.479 144.08C123.479 131.658 133.556 121.586 145.983 121.586H417.896C428.9 121.586 437.825 112.665 437.825 101.666C437.825 90.6674 428.9 81.7464 417.896 81.7464H169.076C163.02 81.7464 158.117 76.8456 158.117 70.7929C158.117 64.7402 163.02 59.8394 169.076 59.8394H232.388" stroke="#B3D3F4" stroke-miterlimit="10" stroke-dasharray="3.99 3.99"/>
<path d="M236.885 59.7938H241.404" stroke="#B3D3F4" stroke-miterlimit="10"/>
<path d="M258.531 24.3586C245.945 22.2356 234.037 30.7048 231.913 43.2845C230.603 51.031 233.337 58.5291 238.556 63.6332L235.438 69.9569L242.443 66.6821C244.928 68.2405 247.775 69.3471 250.848 69.8666C263.434 71.9895 275.342 63.5203 277.466 50.9407C279.59 38.3836 271.116 26.4815 258.531 24.3586Z" fill="#F3FAFF"/>
<path d="M244.409 57.942L242.014 55.0737C241.087 53.9671 241.245 52.341 242.353 51.415L245.109 49.134C246.216 48.208 247.843 48.3661 248.77 49.4727C248.77 49.4727 250.035 51.3698 251.526 51.0311C253.221 50.6471 256.904 47.9596 258.892 45.8818C260.293 44.4138 257.943 41.8165 257.943 41.8165C257.017 40.7099 257.175 39.0838 258.282 38.1578L261.039 35.8768C262.146 34.9508 263.773 35.1089 264.699 36.2156L267.095 39.0838C272.427 45.4978 249.086 63.5655 244.409 57.942Z" fill="#B3D3F4"/>
<path d="M359.171 59.3421C362.583 56.0674 364.006 52.6797 368.728 51.6408C369.7 51.4149 370.717 51.302 371.553 50.7826C373.858 49.3597 373.383 46.1076 373.903 43.5329C374.92 38.4514 381.54 35.2669 386.398 37.4802C388.432 38.4062 390.284 40.1452 392.521 39.9871C397.018 39.6709 396.476 34.1377 399.549 30.9759C402.463 27.9947 408.361 27.5882 412.134 29.4853C414.71 30.7726 417.037 32.6245 418.755 34.8604C420.585 37.2318 420.494 40.8905 421.85 43.5103C423.138 46.0398 426.211 47.1239 427.567 49.6082C428.742 51.7537 429.081 54.0573 428.132 56.3384C426.211 60.9456 420.562 64.2656 415.456 64.2656C407.186 64.2656 346.404 64.2656 346.404 64.2656C346.404 64.2656 355.352 63.0009 359.171 59.3421Z" fill="#F3FAFF"/>
<path d="M193.773 26.5719C190.88 23.794 189.683 20.9483 185.706 20.0449C184.893 19.8643 184.034 19.7513 183.334 19.3222C181.39 18.1252 181.797 15.3699 181.345 13.2018C180.487 8.91071 174.883 6.20056 170.771 8.09766C169.053 8.88813 167.494 10.3335 165.596 10.2206C161.8 9.97219 162.252 5.27459 159.654 2.6096C157.191 0.0801208 152.197 -0.236064 149.011 1.34486C146.819 2.42892 144.876 3.98726 143.408 5.88437C141.871 7.8944 141.939 10.9885 140.787 13.1792C139.702 15.3022 137.103 16.2507 135.951 18.3285C134.957 20.1579 134.663 22.0775 135.477 23.9972C137.103 27.8818 141.871 30.7049 146.187 30.7049C153.169 30.7049 204.551 30.7049 204.551 30.7049C204.551 30.7049 197.004 29.666 193.773 26.5719Z" fill="#F3FAFF"/>
<path d="M462.974 89.5603L422.415 67.8791L433.103 36.1929L482.451 61.7361L462.974 89.5603Z" fill="#CFE0F5"/>
<path d="M482.452 61.7361L433.104 36.1929L468.284 28.6722L482.452 61.7361Z" fill="#CFE0F5"/>
<path d="M478.682 56.6458L439.154 36.1885L421.866 69.5602L461.394 90.0175L478.682 56.6458Z" fill="#FFF4E1"/>
<path d="M433.103 36.1929L416.473 68.263L448.874 66.1401L433.103 36.1929Z" fill="#E6F1FC"/>
<path d="M482.451 61.7362L465.843 93.8064L448.874 66.1402L482.451 61.7362Z" fill="#E6F1FC"/>
<path d="M465.843 93.8063L416.473 68.2631L454.026 56.3835L465.843 93.8063Z" fill="#E6F1FC"/>
<path d="M465.843 93.8062L416.473 68.263L451.676 60.7649L465.843 93.8062Z" fill="#E6F1FC"/>
<path d="M137.421 102.976L104.386 111.264L94.4668 88.5668L134.257 78.0198L137.421 102.976Z" fill="#CFE0F5"/>
<path d="M134.257 78.0197L94.4668 88.5667L110.035 66.9307L134.257 78.0197Z" fill="#CFE0F5"/>
<path d="M129.67 77.099L97.8008 85.5344L104.927 112.432L136.796 103.997L129.67 77.099Z" fill="#FFF4E1"/>
<path d="M94.4668 88.5667L101.313 114.426L118.034 97.1488L94.4668 88.5667Z" fill="#E6F1FC"/>
<path d="M134.257 78.0198L141.126 103.879L118.033 97.1489L134.257 78.0198Z" fill="#E6F1FC"/>
<path d="M141.126 103.879L101.313 114.426L116 89.2217L141.126 103.879Z" fill="#E6F1FC"/>
<path d="M141.126 103.879L101.313 114.426L116.882 92.8126L141.126 103.879Z" fill="#E6F1FC"/>
<path d="M267.502 57.8064L268.722 55.8867C268.722 55.8867 268.361 54.5091 268.383 52.7926C268.383 52.0248 268.632 49.9921 268.948 49.834C269.264 49.676 269.4 51.5505 269.536 51.4827C269.671 51.415 270.643 47.7111 271.208 47.7563C271.479 47.7788 270.53 51.3698 270.53 51.3698C270.53 51.3698 271.479 47.4627 271.908 47.5982C272.337 47.7337 271.298 51.4601 271.298 51.4601C271.298 51.4601 272.202 47.9369 272.586 48.0499C272.947 48.1628 271.998 51.5957 271.998 51.5957C271.998 51.5957 272.902 48.5241 273.106 48.7048C273.422 48.9758 273.06 51.0762 272.179 54.0574C272.021 54.5768 271.275 56.2707 271.253 56.4062C271.208 56.5417 270.372 59.6358 270.372 59.6358" fill="#FC8975"/>
<path d="M269.535 51.9344C269.807 52.4539 270.145 53.0185 270.304 53.5831C270.507 54.3284 270.304 55.0059 270.145 55.7286C270.1 55.9093 270.349 56.0222 270.462 55.8641C271.366 54.3962 270.733 53.0185 269.807 51.7763C269.671 51.6408 269.445 51.7538 269.535 51.9344Z" fill="#CC6658"/>
<path d="M225.316 288.576C225.316 288.576 232.479 291.196 232.524 293.319C232.546 294.538 222.13 294.493 221.475 293.703C220.435 292.416 222.243 288.87 222.243 288.87L225.316 288.576Z" fill="#352E72"/>
<path d="M225.157 282.659L225.315 288.757C225.315 288.757 225.089 289.751 224.027 289.886C222.965 290.022 222.242 288.847 222.242 288.847L221.926 281.214" fill="#FC8975"/>
<path d="M230.061 146.925C230.061 146.925 233.97 170.594 232.004 216.012C230.671 247.043 226.468 284.533 224.932 284.579C223.395 284.624 222.017 284.421 222.017 284.421C222.017 284.421 212.233 239.477 211.578 214.16C210.561 175.179 200.258 166.235 204.732 145.977" fill="url(#paint7_linear)"/>
<path d="M225.948 282.094L225.655 284.782L221.361 284.895L221.181 282.23L225.948 282.094Z" fill="#75A1E9"/>
<path d="M203.217 289.163C203.217 289.163 210.38 291.783 210.425 293.906C210.448 295.126 200.031 295.081 199.376 294.29C198.337 293.003 200.144 289.434 200.144 289.434L203.217 289.163Z" fill="#352E72"/>
<path d="M203.059 283.269L203.217 289.367C203.217 289.367 202.991 290.36 201.929 290.496C200.868 290.631 200.144 289.457 200.144 289.457L199.828 281.823" fill="#FC8975"/>
<path d="M217.408 147.264C217.408 147.264 215.578 177.37 213.25 212.127C212.347 225.859 204.438 283.269 203.331 285.166C201.795 285.211 199.422 285.279 199.422 285.279C199.422 285.279 193.479 235.593 192.824 210.275C191.807 171.294 187.605 166.574 192.056 146.316" fill="url(#paint8_linear)"/>
<path d="M203.94 282.704L203.647 285.392L199.354 285.505L199.173 282.84L203.94 282.704Z" fill="#75A1E9"/>
<path d="M216.482 162.509C216.482 162.509 214.968 200.971 212.144 223.51" stroke="#4A578E" stroke-width="0.5" stroke-miterlimit="10"/>
<path d="M221.52 67.0887C219.08 62.7751 212.437 63.43 208.663 65.3949C203.286 68.1954 201.998 76.1677 196.981 79.578C194.767 81.0912 192.078 81.972 190.293 84.0046C188.214 86.376 187.808 89.967 188.847 92.9707C189.886 95.9745 192.191 98.391 194.88 100.017C197.546 101.643 200.574 102.547 203.624 103.247C208.46 104.353 213.634 104.963 218.334 103.337C223.034 101.711 227.124 97.3295 227.101 92.248C227.078 87.9569 224.277 83.9369 224.751 79.6684" fill="#081466"/>
<path d="M267.886 56.361C267.886 56.361 255.052 74.7674 252.115 78.9682C247.551 85.4951 228.774 86.7373 218.742 92.677L211.782 93.4223C208.483 94.0999 197.073 102.208 196.011 105.483C193.57 112.935 191.13 120.501 190.678 128.361C190.52 131.026 190.61 133.691 190.701 136.356C190.836 140.218 190.949 144.057 191.085 147.919C191.085 148.167 191.108 148.461 191.266 148.664C191.424 148.89 191.718 148.958 191.966 149.026C204.574 151.939 217.68 150.358 230.514 148.8C230.966 148.755 231.44 148.664 231.779 148.348C232.186 147.964 232.231 147.354 232.254 146.79C232.321 144.328 232.186 141.866 232.073 139.382C231.644 128.722 232.028 118.017 233.203 107.402C237.179 104.918 253.606 99.7686 259.097 92.0898C271.411 74.9255 271.411 57.2418 271.411 57.2418L267.886 56.361Z" fill="url(#paint9_linear)"/>
<path d="M218.741 92.6771L218.492 83.8691L214.583 84.4112L211.781 93.3547C211.781 93.3547 213.069 95.2066 215.939 94.8001C218.447 94.4387 218.741 92.6771 218.741 92.6771Z" fill="#FC8975"/>
<path d="M210.404 80.2555C210.2 76.8 211.217 73.0961 213.047 71.0635C214.855 69.0309 218.267 68.7373 220.775 69.0761C221.633 69.189 222.492 69.4826 223.17 70.0472C225.655 72.1024 225.475 76.8452 225.316 79.7586C225.158 82.2203 224.435 84.7272 222.899 86.6243C222.402 87.2341 221.837 87.7762 221.114 88.0698C218.741 89.0635 215.352 88.5215 213.341 86.9179C211.375 85.3596 210.539 82.7172 210.404 80.2555Z" fill="#FC8975"/>
<path d="M209.296 83.0335C208.37 83.4627 206.946 83.7788 206.246 82.7625C205.681 81.9495 206.178 80.7525 206.381 79.8943C207.036 77.1164 207.827 74.3611 208.799 71.6735C209.296 70.2958 209.838 68.8956 210.697 67.6986C212.391 65.3724 217.182 64.2883 220.006 64.5593C223.102 64.3561 228.05 69.415 225.339 75.287C224.932 73.8416 224.367 73.9771 223.305 72.7575C222.288 73.7739 220.865 74.3385 219.441 74.4514C217.566 74.6321 215.397 74.203 214.018 75.5129C212.617 76.8679 212.911 79.2619 211.872 80.9332C211.284 81.9269 210.313 82.5593 209.296 83.0335Z" fill="#081466"/>
<path d="M212.504 80.8428C212.64 80.0297 212.12 79.5329 211.578 79.4651C210.155 79.307 209.725 81.5429 210.268 82.5818C210.674 83.3271 211.714 83.9595 212.256 83.0561" fill="#FC8975"/>
<path d="M214.9 86.105C214.538 86.0824 214.199 86.0146 213.86 85.9243C213.069 85.721 211.962 85.2693 211.194 84.1853C210.923 83.8013 210.787 83.4174 210.765 83.056C210.765 82.9657 210.832 82.898 210.923 82.8754C211.013 82.8754 211.081 82.9431 211.081 83.0335C211.081 83.3271 211.217 83.6432 211.443 83.982C212.143 84.9757 213.182 85.4049 213.928 85.6081C214.922 85.8565 215.984 85.834 216.911 85.7662C217.001 85.7662 217.069 85.834 217.091 85.9243C217.091 86.0146 217.024 86.0824 216.933 86.105C216.3 86.1276 215.6 86.1501 214.9 86.105Z" fill="#081466"/>
<path d="M217.657 85.5178C217.386 85.3597 217.047 85.3823 216.753 85.4726C215.736 85.8114 216.843 87.1439 217.77 86.4438C217.837 86.376 217.905 86.3083 217.95 86.2405C218.063 85.9921 217.905 85.6759 217.657 85.5178Z" fill="#081466"/>
<path d="M208.053 75.0611C208.301 72.78 209.137 70.1376 210.538 68.3534C212.346 66.0498 214.764 64.1527 217.091 64.1527C219.034 64.1527 220.006 64.6044 220.006 64.6044C217.611 65.1916 215.577 66.3434 213.679 68.3534C211.781 70.3409 210.674 73.0962 210.629 75.8741" fill="#75A1E9"/>
<path d="M213.905 78.8552C214.176 81.4524 212.482 83.7561 210.132 84.0045C207.782 84.2529 205.658 82.3558 205.409 79.7586C205.138 77.1614 206.833 74.8577 209.183 74.6093C211.51 74.3609 213.634 76.2806 213.905 78.8552Z" fill="#75A1E9"/>
<path d="M211.894 79.2844C212.075 81.0686 210.968 82.6495 209.431 82.8076C207.895 82.9657 206.494 81.6558 206.313 79.8716C206.133 78.0874 207.24 76.5065 208.776 76.3484C210.313 76.1903 211.714 77.5002 211.894 79.2844Z" fill="#2D4CBA"/>
<path d="M297.236 71.6282L153.553 197.402V370.332H440.943V197.402L297.236 71.6282Z" fill="url(#paint10_linear)"/>
<path d="M426.867 115.871H168.512V352.491H426.867V115.871Z" fill="url(#paint11_linear)"/>
<path d="M411.614 146.609H182.858V166.822H411.614V146.609Z" fill="white"/>
<path d="M411.614 176.285H182.858V196.499H411.614V176.285Z" fill="white"/>
<path d="M411.614 205.961H182.858V326.112H411.614V205.961Z" fill="white"/>
<path d="M195.603 157.72V152.358H194.461V155.726L191.976 152.358H190.802V157.72H191.944V154.223L194.502 157.72H195.603Z" fill="#EAC38F"/>
<path d="M199.991 157.72V155.212C199.991 154.095 199.179 153.741 198.294 153.741C197.683 153.741 197.071 153.934 196.597 154.352L196.983 155.035C197.313 154.73 197.699 154.577 198.117 154.577C198.632 154.577 198.97 154.834 198.97 155.228V155.751C198.712 155.445 198.254 155.276 197.739 155.276C197.12 155.276 196.388 155.622 196.388 156.53C196.388 157.399 197.12 157.817 197.739 157.817C198.246 157.817 198.704 157.632 198.97 157.318V157.72H199.991ZM198.149 157.125C197.747 157.125 197.417 156.916 197.417 156.555C197.417 156.177 197.747 155.968 198.149 155.968C198.479 155.968 198.801 156.08 198.97 156.305V156.788C198.801 157.013 198.479 157.125 198.149 157.125Z" fill="#EAC38F"/>
<path d="M206.852 157.72V154.915C206.852 154.119 206.425 153.741 205.709 153.741C205.114 153.741 204.599 154.095 204.374 154.448C204.229 154.006 203.868 153.741 203.296 153.741C202.701 153.741 202.187 154.111 202.026 154.344V153.837H201.004V157.72H202.026V155.107C202.179 154.89 202.476 154.649 202.83 154.649C203.248 154.649 203.409 154.906 203.409 155.268V157.72H204.439V155.099C204.583 154.89 204.881 154.649 205.243 154.649C205.661 154.649 205.822 154.906 205.822 155.268V157.72H206.852Z" fill="#EAC38F"/>
<path d="M209.679 157.817C210.282 157.817 210.894 157.632 211.28 157.278L210.829 156.619C210.58 156.86 210.122 157.005 209.792 157.005C209.132 157.005 208.738 156.595 208.674 156.104H211.561V155.879C211.561 154.609 210.773 153.741 209.615 153.741C208.432 153.741 207.604 154.649 207.604 155.775C207.604 157.021 208.497 157.817 209.679 157.817ZM210.572 155.413H208.658C208.706 155.027 208.979 154.553 209.615 154.553C210.29 154.553 210.548 155.043 210.572 155.413Z" fill="#EAC38F"/>
<path d="M194.598 188.095V187.09H191.944V185.876H194.542V184.871H191.944V183.737H194.598V182.733H190.802V188.095H194.598Z" fill="#EAC38F"/>
<path d="M201.314 188.095V185.289C201.314 184.493 200.888 184.115 200.172 184.115C199.577 184.115 199.062 184.469 198.837 184.823C198.692 184.381 198.33 184.115 197.759 184.115C197.164 184.115 196.649 184.485 196.488 184.718V184.212H195.467V188.095H196.488V185.482C196.641 185.265 196.939 185.024 197.293 185.024C197.711 185.024 197.872 185.281 197.872 185.643V188.095H198.901V185.474C199.046 185.265 199.344 185.024 199.705 185.024C200.124 185.024 200.285 185.281 200.285 185.643V188.095H201.314Z" fill="#EAC38F"/>
<path d="M205.67 188.095V185.587C205.67 184.469 204.858 184.115 203.973 184.115C203.362 184.115 202.75 184.308 202.276 184.726L202.662 185.41C202.992 185.104 203.378 184.951 203.796 184.951C204.311 184.951 204.648 185.209 204.648 185.603V186.125C204.391 185.82 203.933 185.651 203.418 185.651C202.799 185.651 202.067 185.997 202.067 186.905C202.067 187.773 202.799 188.191 203.418 188.191C203.925 188.191 204.383 188.006 204.648 187.693V188.095H205.67ZM203.828 187.5C203.426 187.5 203.096 187.291 203.096 186.929C203.096 186.551 203.426 186.342 203.828 186.342C204.158 186.342 204.48 186.455 204.648 186.68V187.162C204.48 187.387 204.158 187.5 203.828 187.5Z" fill="#EAC38F"/>
<path d="M207.19 183.794C207.528 183.794 207.801 183.52 207.801 183.183C207.801 182.845 207.528 182.58 207.19 182.58C206.86 182.58 206.578 182.845 206.578 183.183C206.578 183.52 206.86 183.794 207.19 183.794ZM207.705 188.095V184.212H206.683V188.095H207.705Z" fill="#EAC38F"/>
<path d="M209.739 188.095V182.733H208.717V188.095H209.739Z" fill="#EAC38F"/>
<path d="M196.617 217.733V212.37H195.008L193.705 215.61L192.402 212.37H190.802V217.733H191.944V213.978L193.456 217.733H193.955L195.467 213.978V217.733H196.617Z" fill="#EAC38F"/>
<path d="M199.484 217.829C200.087 217.829 200.698 217.644 201.085 217.29L200.634 216.631C200.385 216.872 199.926 217.017 199.597 217.017C198.937 217.017 198.543 216.607 198.479 216.117H201.366V215.892C201.366 214.621 200.578 213.753 199.42 213.753C198.237 213.753 197.409 214.662 197.409 215.787C197.409 217.033 198.302 217.829 199.484 217.829ZM200.377 215.425H198.462C198.511 215.04 198.784 214.565 199.42 214.565C200.095 214.565 200.353 215.056 200.377 215.425Z" fill="#EAC38F"/>
<path d="M203.503 217.829C204.581 217.829 205.184 217.29 205.184 216.583C205.184 215.015 202.884 215.498 202.884 214.919C202.884 214.702 203.125 214.533 203.495 214.533C203.97 214.533 204.412 214.734 204.645 214.983L205.056 214.284C204.67 213.978 204.147 213.753 203.487 213.753C202.466 213.753 201.895 214.324 201.895 214.975C201.895 216.503 204.203 215.98 204.203 216.623C204.203 216.864 203.994 217.041 203.552 217.041C203.069 217.041 202.49 216.776 202.208 216.511L201.766 217.226C202.176 217.604 202.828 217.829 203.503 217.829Z" fill="#EAC38F"/>
<path d="M209.291 217.733V215.224C209.291 214.107 208.478 213.753 207.594 213.753C206.982 213.753 206.371 213.946 205.897 214.364L206.283 215.048C206.612 214.742 206.999 214.589 207.417 214.589C207.932 214.589 208.269 214.847 208.269 215.24V215.763C208.012 215.458 207.554 215.289 207.039 215.289C206.419 215.289 205.688 215.634 205.688 216.543C205.688 217.411 206.419 217.829 207.039 217.829C207.545 217.829 208.004 217.644 208.269 217.331V217.733H209.291ZM207.449 217.138C207.047 217.138 206.717 216.929 206.717 216.567C206.717 216.189 207.047 215.98 207.449 215.98C207.779 215.98 208.1 216.093 208.269 216.318V216.8C208.1 217.025 207.779 217.138 207.449 217.138Z" fill="#EAC38F"/>
<path d="M211.896 219.308C212.854 219.308 213.996 218.947 213.996 217.467V213.85H212.966V214.348C212.653 213.954 212.234 213.753 211.768 213.753C210.787 213.753 210.055 214.461 210.055 215.731C210.055 217.025 210.795 217.709 211.768 217.709C212.242 217.709 212.661 217.483 212.966 217.098V217.491C212.966 218.255 212.387 218.472 211.896 218.472C211.406 218.472 210.996 218.336 210.682 217.99L210.224 218.73C210.714 219.156 211.229 219.308 211.896 219.308ZM212.09 216.8C211.51 216.8 211.108 216.398 211.108 215.731C211.108 215.064 211.51 214.662 212.09 214.662C212.427 214.662 212.797 214.847 212.966 215.104V216.358C212.797 216.607 212.427 216.8 212.09 216.8Z" fill="#EAC38F"/>
<path d="M216.835 217.829C217.438 217.829 218.049 217.644 218.435 217.29L217.985 216.631C217.735 216.872 217.277 217.017 216.947 217.017C216.288 217.017 215.894 216.607 215.829 216.117H218.717V215.892C218.717 214.621 217.928 213.753 216.77 213.753C215.588 213.753 214.76 214.662 214.76 215.787C214.76 217.033 215.652 217.829 216.835 217.829ZM217.727 215.425H215.813C215.861 215.04 216.135 214.565 216.77 214.565C217.446 214.565 217.703 215.056 217.727 215.425Z" fill="#EAC38F"/>
<path d="M269.08 137.575C270.422 137.575 271.262 136.898 271.636 136.293L270.345 134.939C270.1 135.328 269.699 135.616 269.17 135.616C268.344 135.616 267.711 134.968 267.711 133.916C267.711 132.864 268.344 132.23 269.17 132.23C269.699 132.23 270.1 132.489 270.345 132.893L271.636 131.553C271.262 130.933 270.422 130.271 269.08 130.271C267.13 130.271 265.671 131.74 265.671 133.916C265.671 136.106 267.13 137.575 269.08 137.575Z" fill="#EAC38F"/>
<path d="M275.522 137.575C277.666 137.575 278.931 135.875 278.931 133.916C278.931 131.956 277.666 130.271 275.522 130.271C273.405 130.271 272.127 131.956 272.127 133.916C272.127 135.875 273.405 137.575 275.522 137.575ZM275.522 135.616C274.657 135.616 274.179 134.852 274.179 133.916C274.179 132.994 274.657 132.23 275.522 132.23C276.4 132.23 276.891 132.994 276.891 133.916C276.891 134.852 276.4 135.616 275.522 135.616Z" fill="#EAC38F"/>
<path d="M286.189 137.403V132.475C286.189 131.193 285.544 130.271 284.123 130.271C283.078 130.271 282.342 130.804 281.967 131.294V130.443H279.979V137.403H281.967V132.907C282.2 132.59 282.587 132.23 283.181 132.23C283.801 132.23 284.201 132.533 284.201 133.383V137.403H286.189Z" fill="#EAC38F"/>
<path d="M289.995 137.575C290.731 137.575 291.222 137.374 291.467 137.114L291.08 135.443C291.015 135.53 290.796 135.616 290.576 135.616C290.228 135.616 290.021 135.313 290.021 134.91V132.374H291.286V130.443H290.021V128.542H288.046V130.443H287.013V132.374H288.046V135.53C288.046 136.869 288.73 137.575 289.995 137.575Z" fill="#EAC38F"/>
<path d="M297.953 137.403V133.051C297.953 130.89 296.546 130.271 295.048 130.271C294.093 130.271 293.021 130.588 292.221 131.351L292.931 132.749C293.434 132.273 294.08 132.014 294.7 132.014C295.5 132.014 295.965 132.417 295.965 133.023V133.858C295.59 133.34 294.854 133.051 294.028 133.051C293.073 133.051 291.885 133.599 291.885 135.285C291.885 136.855 293.073 137.575 294.028 137.575C294.829 137.575 295.577 137.23 295.965 136.711V137.403H297.953ZM294.854 136.12C294.325 136.12 293.86 135.861 293.86 135.313C293.86 134.766 294.325 134.507 294.854 134.507C295.293 134.507 295.758 134.679 295.965 134.996V135.616C295.758 135.947 295.293 136.12 294.854 136.12Z" fill="#EAC38F"/>
<path d="M302.392 137.575C303.735 137.575 304.574 136.898 304.948 136.293L303.657 134.939C303.412 135.328 303.012 135.616 302.482 135.616C301.656 135.616 301.023 134.968 301.023 133.916C301.023 132.864 301.656 132.23 302.482 132.23C303.012 132.23 303.412 132.489 303.657 132.893L304.948 131.553C304.574 130.933 303.735 130.271 302.392 130.271C300.442 130.271 298.983 131.74 298.983 133.916C298.983 136.106 300.442 137.575 302.392 137.575Z" fill="#EAC38F"/>
<path d="M308.215 137.575C308.951 137.575 309.441 137.374 309.687 137.114L309.299 135.443C309.235 135.53 309.015 135.616 308.796 135.616C308.447 135.616 308.241 135.313 308.241 134.91V132.374H309.506V130.443H308.241V128.542H306.265V130.443H305.232V132.374H306.265V135.53C306.265 136.869 306.95 137.575 308.215 137.575Z" fill="#EAC38F"/>
<path d="M320.006 137.403V130.443H318.017V134.939C317.785 135.27 317.398 135.616 316.83 135.616C316.184 135.616 315.797 135.328 315.797 134.492V130.443H313.808V135.4C313.808 136.682 314.441 137.575 315.861 137.575C316.907 137.575 317.63 137.057 318.017 136.567V137.403H320.006Z" fill="#EAC38F"/>
<path d="M323.838 137.575C325.632 137.575 326.678 136.596 326.678 135.27C326.678 132.417 323.05 133.21 323.05 132.403C323.05 132.115 323.373 131.899 323.838 131.899C324.587 131.899 325.297 132.259 325.671 132.662L326.433 131.193C325.762 130.645 324.871 130.271 323.825 130.271C322.095 130.271 321.152 131.337 321.152 132.561C321.152 135.357 324.78 134.463 324.78 135.371C324.78 135.688 324.535 135.904 323.941 135.904C323.205 135.904 322.211 135.443 321.746 134.982L320.92 136.509C321.578 137.158 322.727 137.575 323.838 137.575Z" fill="#EAC38F"/>
<path opacity="0.55" d="M297.236 307.186L153.553 197.402V352.491H440.943V197.402L297.236 307.186Z" fill="#C9D3F4"/>
<path d="M297.236 325.073L153.553 197.402V370.332H440.943V197.402L297.236 325.073Z" fill="url(#paint12_linear)"/>
<path opacity="0.35" d="M297.236 234.938L153.553 370.332H440.943L297.236 234.938Z" fill="#C9D3F4"/>
<path d="M297.236 248.127L153.553 370.332H440.943L297.236 248.127Z" fill="url(#paint13_linear)"/>
<path d="M391.233 378.734C388.318 363.58 391.369 348.019 397.424 335.078C401.378 326.609 410.507 314.797 420.697 314.978C428.267 315.113 431.43 322.724 431.882 329.567C433.034 347.522 424.584 352.988 424.629 372.41C425.058 365.07 432.176 341.198 443.27 349.329C454.161 357.301 443.541 378.734 443.541 378.734" fill="url(#paint14_linear)"/>
<path d="M439.995 353.868C435.317 361.321 431.092 369.768 430.798 378.734C430.776 379.276 431.679 379.434 431.77 378.87C433.261 370.016 436.357 362.134 440.695 354.298C440.944 353.823 440.266 353.417 439.995 353.868Z" fill="#92D0FF"/>
<path d="M419.725 325.796C409.512 340.34 406.168 361.276 405.197 378.734C405.174 379.276 406.078 379.412 406.168 378.87C409.038 361.186 410.235 341.582 420.426 326.202C420.697 325.773 420.019 325.367 419.725 325.796Z" fill="#92D0FF"/>
<path d="M201.32 134.323C201.32 134.323 203.15 135.61 203.76 135.656C204.393 135.701 205.839 135.227 207.624 135.407C208.415 135.498 210.493 135.949 210.606 136.265C210.719 136.582 208.731 136.536 208.776 136.672C208.821 136.807 212.482 138.185 212.324 138.727C212.233 138.998 208.686 137.666 208.686 137.666C208.686 137.666 212.55 139.021 212.324 139.45C212.098 139.879 208.437 138.456 208.437 138.456C208.437 138.456 211.94 139.743 211.736 140.105C211.533 140.466 208.121 139.563 208.121 139.563C208.121 139.563 211.104 140.218 210.945 140.556C210.855 140.737 207.601 140.331 204.799 139.269C202.224 138.298 200.1 136.695 200.1 136.695" fill="#FC8975"/>
<path d="M202.607 108.148C199.376 113.048 191.919 118.717 187.807 122.195C190.179 125.402 203.556 135.385 203.556 135.385L202.313 138.366C202.313 138.366 176.826 133.804 176.012 121.202C175.538 113.681 185.073 102.569 192.462 97.3747C199.398 92.4964 207.533 91.6834 211.803 93.4224" fill="url(#paint15_linear)"/>
<path d="M389.267 163.051C386.466 161.899 382.444 158.466 382.918 156.524C383.122 155.688 385.087 157.947 385.652 157.405C386.014 157.043 385.72 155.372 384.703 154.559C383.686 153.746 381.585 152.255 382.105 151.736C382.624 151.216 387.776 152.368 388.929 154.107C389.652 155.214 390.465 157.653 390.962 160.295L393.086 163.051" fill="#FC8975"/>
<path d="M443.203 381.715C443.203 381.715 434.436 384.38 434.436 386.368C434.436 387.52 447.315 387.203 448.106 386.436C449.349 385.193 446.999 381.873 446.999 381.873L443.203 381.715Z" fill="#352E72"/>
<path d="M443.202 376.137V381.896C443.202 381.896 443.518 382.822 444.829 382.935C446.14 383.048 446.998 381.896 446.998 381.896L447.134 374.691" fill="#FC8975"/>
<path d="M432.741 248.15C432.741 248.15 428.696 270.599 432.583 313.397C435.249 342.644 441.643 377.921 443.541 377.921C445.439 377.921 447.134 377.718 447.134 377.718C447.134 377.718 457.754 335.033 457.754 311.138C457.754 274.325 470.181 265.608 464.013 246.614" fill="url(#paint16_linear)"/>
<path d="M442.23 375.617L442.66 378.147H447.97L448.128 375.617H442.23Z" fill="#75A1E9"/>
<path d="M470.542 381.715C470.542 381.715 461.775 384.38 461.775 386.368C461.775 387.52 474.655 387.203 475.446 386.436C476.688 385.193 474.338 381.873 474.338 381.873L470.542 381.715Z" fill="#352E72"/>
<path d="M470.542 376.137V381.896C470.542 381.896 470.858 382.822 472.169 382.935C473.479 383.048 474.338 381.896 474.338 381.896L474.474 374.691" fill="#FC8975"/>
<path d="M448.377 248.15C448.377 248.15 451.631 276.516 455.607 309.264C457.189 322.205 468.803 376.182 470.227 377.944C472.125 377.944 475.039 377.944 475.039 377.944C475.039 377.944 480.756 330.9 480.756 306.983C480.756 270.17 485.795 265.608 479.626 246.614" fill="url(#paint17_linear)"/>
<path d="M469.437 375.617L469.888 378.147H475.176L475.334 375.617H469.437Z" fill="#75A1E9"/>
<path d="M450.05 262.514C450.05 262.514 453.168 298.785 457.371 319.969" stroke="#4A578E" stroke-width="0.5" stroke-miterlimit="10"/>
<path d="M480.892 243.452C480.892 241.103 482.722 200.654 475.695 191.507C473.707 187.261 466.363 182.428 460.488 180.328C455.314 178.476 452.083 179.921 449.733 180.26C439.859 177.415 417.263 179.312 411.005 176.105C407.547 174.343 391.414 160.363 391.414 160.363L388.409 162.712C388.409 162.712 398.057 182.835 408.881 189.881C416.495 194.827 427.815 197.583 433.848 198.78C433.758 199.886 433.69 201.106 433.622 202.461C433.283 209.688 432.47 222.358 433.306 243.452C433.396 245.462 431.205 248.014 431.205 249.369C431.205 250.724 433.826 254.948 455.54 254.948C473.955 254.948 482.722 252.237 482.722 249.166C482.722 246.004 480.892 245.801 480.892 243.452Z" fill="url(#paint18_linear)"/>
<g opacity="0.75">
<path opacity="0.75" d="M434.346 190.491C434.707 191.891 434.73 193.291 434.662 194.669C434.549 196.047 434.368 197.424 433.849 198.78C433.487 197.379 433.464 195.979 433.532 194.601C433.623 193.224 433.826 191.846 434.346 190.491Z" fill="url(#paint19_linear)"/>
</g>
<path d="M448.377 155.507C447.564 158.76 445.553 167.681 447.383 170.458C449.213 173.214 453.19 174.004 456.24 172.74C459.291 171.452 461.415 168.516 462.386 165.354C463.358 162.192 463.335 158.827 463.132 155.507" fill="#FC8975"/>
<path d="M451.925 167.319L450.659 178.137C450.659 178.137 451.134 181.164 452.783 182.315C456.85 182.225 458.816 178.363 458.816 178.363L457.596 164.428" fill="#FC8975"/>
<path d="M459.064 158.511C456.963 157.766 454.093 158.037 451.472 157.585C449.642 157.269 447.699 157.247 445.982 156.479C442.864 155.101 443.135 150.381 445.688 148.597C446.366 148.122 447.292 147.626 448.151 147.829C449.077 148.032 449.416 149.003 450.207 149.365C450.636 149.568 451.133 149.613 451.608 149.568C451.947 149.523 452.308 149.432 452.557 149.206C453.009 148.822 453.19 148.213 453.619 147.784C454.048 147.377 454.568 147.151 455.133 147.016C456.33 146.722 457.754 146.858 458.771 147.58C459.132 147.829 459.449 148.168 459.878 148.303C460.556 148.529 461.324 148.484 461.957 148.845C463.719 149.816 464.849 152.301 464.984 154.22C465.007 154.514 465.504 154.83 465.685 155.033C467.425 157.066 467.538 159.912 467.086 162.441C466.611 164.948 465.753 167.364 463.696 169.013C462.996 169.578 461.957 169.826 461.03 170.165C457.37 171.385 459.223 161.38 459.064 158.511Z" fill="#352E72"/>
<path d="M459.539 164.045C459.562 163.322 460.646 162.712 461.347 163.209C461.799 163.548 462.047 163.864 462.07 164.338C462.137 165.332 461.46 166.868 460.217 167.093C459.742 167.184 459.245 166.574 459.223 166.122" fill="#FC8975"/>
<path d="M455.743 170.526C456.104 170.504 456.443 170.436 456.782 170.368C457.573 170.165 458.68 169.713 459.448 168.652C459.719 168.268 459.855 167.907 459.877 167.568C459.877 167.477 459.81 167.41 459.719 167.41C459.629 167.41 459.561 167.477 459.561 167.568C459.561 167.861 459.426 168.155 459.2 168.494C458.499 169.465 457.46 169.894 456.714 170.075C455.72 170.323 454.658 170.278 453.732 170.233C453.641 170.233 453.573 170.3 453.551 170.391C453.551 170.481 453.619 170.549 453.709 170.572C454.342 170.572 455.042 170.594 455.743 170.526Z" fill="#081466"/>
<path d="M452.986 169.962C453.257 169.826 453.596 169.826 453.89 169.917C454.906 170.233 453.799 171.543 452.873 170.865C452.805 170.82 452.737 170.752 452.692 170.662C452.556 170.436 452.715 170.12 452.986 169.962Z" fill="#081466"/>
<path d="M462.59 159.731C462.341 157.495 461.505 154.92 460.104 153.181C458.297 150.923 455.879 149.071 453.552 149.071C451.608 149.071 450.637 149.523 450.637 149.523C453.032 150.087 455.065 151.216 456.963 153.181C458.861 155.124 459.969 157.811 460.014 160.544" fill="#75A1E9"/>
<path d="M456.737 163.457C456.466 165.987 458.161 168.245 460.511 168.494C462.861 168.742 464.985 166.868 465.256 164.338C465.527 161.809 463.832 159.55 461.483 159.302C459.11 159.053 456.986 160.928 456.737 163.457Z" fill="#75A1E9"/>
<path d="M458.748 163.864C458.567 165.603 459.674 167.139 461.211 167.297C462.747 167.455 464.148 166.167 464.329 164.428C464.51 162.689 463.403 161.154 461.866 160.996C460.33 160.837 458.929 162.125 458.748 163.864Z" fill="#A2C0ED"/>
<path d="M452.76 240.493H409.377L405.129 214.295C404.948 213.189 405.806 212.172 406.936 212.172H445.597C447.066 212.172 448.331 213.234 448.557 214.702L452.76 240.493Z" fill="#A2C0ED"/>
<path d="M451.517 240.493H408.134L403.886 214.295C403.706 213.189 404.564 212.172 405.694 212.172H444.355C445.823 212.172 447.089 213.234 447.315 214.702L451.517 240.493Z" fill="url(#paint20_linear)"/>
<path d="M429.939 225.633C429.464 223.419 427.792 221.861 426.188 222.132C424.584 222.403 423.68 224.436 424.155 226.649C424.629 228.862 426.301 230.421 427.905 230.15C429.487 229.856 430.413 227.846 429.939 225.633Z" fill="#ABD1FF"/>
<path opacity="0.75" d="M475.694 191.507C473.706 187.261 468.463 185.455 462.589 183.354L460.984 203.138C461.707 212.15 464.961 225.181 464.961 225.181L446.817 238.89L446.84 238.935C446.501 239.161 446.184 239.319 446.117 239.319C445.868 239.319 444.106 238.325 443.179 238.483C442.253 238.641 441.168 238.709 441.168 239.048C441.168 239.387 442.592 239.409 442.592 239.748C442.592 240.064 441.62 240.697 441.191 240.697C440.762 240.697 438.163 240.516 438.005 240.697C437.847 240.877 438.547 242.052 439.27 242.684C439.609 242.978 440.784 243.475 441.552 243.475C443.428 243.475 446.117 242.797 446.456 242.549C446.749 242.323 447.518 241.916 448.241 241.532L448.851 242.661C448.851 242.661 473.57 240.697 481.004 237.309C481.275 225.158 481.207 198.689 475.694 191.507Z" fill="url(#paint21_linear)"/>
<path d="M448.376 237.941C448.376 237.941 446.365 239.138 446.117 239.138C445.868 239.138 444.106 238.28 443.179 238.416C442.253 238.551 441.168 238.596 441.168 238.89C441.168 239.184 442.592 239.206 442.592 239.477C442.592 239.748 441.62 240.29 441.191 240.29C440.762 240.29 438.163 240.132 438.005 240.29C437.847 240.448 438.547 241.442 439.27 241.984C439.609 242.233 440.784 242.662 441.552 242.662C443.428 242.662 446.117 242.074 446.456 241.871C447.111 241.465 449.935 240.222 449.935 240.222" fill="#FC8975"/>
<path d="M460.487 180.351C460.487 180.351 473.186 181.141 479.219 192.885C485.252 204.606 483.376 229.585 479.671 233.289C475.988 236.97 447.902 241.51 447.902 241.51L446.84 238.935L466.611 226.581C466.611 226.581 460.442 205.962 460.442 197.583" fill="url(#paint22_linear)"/>
<path d="M452.76 182.315C453.664 183.219 454.07 184.529 454.952 186.381C459.177 184.98 460.487 180.328 460.487 180.328L458.815 178.341C458.793 178.341 455.494 181.773 452.76 182.315Z" fill="url(#paint23_linear)"/>
<path d="M452.76 182.315C451.947 183.129 451.201 184.303 450.636 185.771C449.552 184.687 448.761 180.825 448.874 180.351C449.394 179.538 450.636 178.137 450.636 178.137C450.636 178.137 450.93 180.486 452.76 182.315Z" fill="url(#paint24_linear)"/>
<path d="M83.4623 380.518C83.4623 380.518 74.6953 383.183 74.6953 385.171C74.6953 386.322 87.5746 386.006 88.3655 385.238C89.6082 383.996 87.3939 380.247 87.3939 380.247L83.4623 380.518Z" fill="#352E73"/>
<path d="M83.4619 374.94V380.699C83.4619 380.699 83.7783 381.625 85.0888 381.738C86.3993 381.851 87.2579 380.699 87.2579 380.699L87.3935 373.494" fill="#FC8975"/>
<path d="M86.377 216.644C80.4796 224.255 73.5654 245.824 73.5654 286.747C73.5654 315.678 82.9425 376.25 82.9425 376.25L88.2976 376.702C105.447 268.431 99.663 269.56 103.934 250.296C106.622 238.235 101.177 207.836 101.177 207.836" fill="url(#paint25_linear)"/>
<path opacity="0.35" d="M100.567 284.624C100.567 284.624 96.8614 264.094 96.8614 259.894C95.2571 268.295 95.2571 279.158 96.8614 286.792C98.0364 292.393 99.2565 297.881 99.2565 297.881L100.567 284.624Z" fill="url(#paint26_linear)"/>
<path d="M82.7158 374.714V376.995C82.7158 376.995 88.3195 377.944 88.3195 377.582C88.3195 377.243 88.568 374.94 88.568 374.94L82.7158 374.714Z" fill="#75A1E9"/>
<path d="M130.256 380.518C130.256 380.518 139.023 383.183 139.023 385.171C139.023 386.322 126.144 386.006 125.353 385.238C124.111 383.996 126.325 380.247 126.325 380.247L130.256 380.518Z" fill="#352E73"/>
<path d="M129.262 374.94L130.256 380.699C130.256 380.699 129.94 381.625 128.629 381.738C127.318 381.851 126.46 380.699 126.46 380.699L125.33 373.494" fill="#FC8975"/>
<path d="M114.914 213.189C120.721 222.968 131.024 243.091 131.024 284.014C131.024 312.945 130.256 376.182 130.256 376.182L125.647 376.656C110.824 335.326 98.5097 282.659 95.6175 251.966C94.4651 239.658 96.6795 207.791 96.6795 207.791" fill="url(#paint27_linear)"/>
<path opacity="0.35" d="M115.592 214.363C110.418 212.692 103.277 211.088 96.544 209.846C96.5214 210.095 96.5214 210.343 96.4988 210.614L86.3987 216.644C85.2012 218.203 83.9584 220.325 82.7383 223.081C85.7435 224.278 89.9914 225.475 95.6854 225.994C104.046 226.739 114.507 225.113 119.862 222.607C118.349 219.309 116.88 216.599 115.592 214.363Z" fill="url(#paint28_linear)"/>
<path d="M131.025 374.285V376.566C131.025 376.566 125.15 377.514 125.15 377.153C125.15 376.814 124.879 374.511 124.879 374.511L131.025 374.285Z" fill="#75A1E9"/>
<path d="M160.942 191.666L162.84 190.627C162.84 190.627 163.157 189.339 163.925 187.894C164.264 187.262 165.394 185.681 165.733 185.681C166.072 185.681 165.348 187.307 165.484 187.307C165.62 187.307 168.128 184.664 168.557 184.98C168.783 185.139 166.365 187.668 166.365 187.668C166.365 187.668 168.919 184.868 169.235 185.161C169.551 185.477 166.998 188.097 166.998 188.097C166.998 188.097 169.348 185.568 169.619 185.839C169.89 186.11 167.54 188.526 167.54 188.526C167.54 188.526 169.687 186.403 169.777 186.629C169.913 186.991 168.693 188.594 166.614 190.672C166.252 191.033 164.851 192.117 164.761 192.208C164.671 192.298 162.569 194.489 162.569 194.489" fill="#FC8975"/>
<path d="M165.303 187.691C165.303 188.255 165.326 188.865 165.213 189.407C165.055 190.107 164.558 190.604 164.128 191.124C164.015 191.259 164.151 191.485 164.332 191.395C165.778 190.581 165.845 189.113 165.597 187.645C165.552 187.487 165.303 187.533 165.303 187.691Z" fill="#CC6658"/>
<path d="M36.826 155.508L35.4929 153.814C35.4929 153.814 35.7188 152.504 35.5833 150.878C35.5155 150.155 35.1314 148.258 34.815 148.122C34.4987 147.987 34.5213 149.771 34.3857 149.726C34.2501 149.658 33.03 146.27 32.4877 146.361C32.2166 146.406 33.4141 149.703 33.4141 149.703C33.4141 149.703 32.194 146.112 31.7873 146.27C31.3805 146.429 32.6685 149.839 32.6685 149.839C32.6685 149.839 31.5161 146.587 31.1772 146.722C30.8383 146.858 32.0132 150.02 32.0132 150.02C32.0132 150.02 30.906 147.219 30.7253 147.4C30.4541 147.671 30.9512 149.636 32.0132 152.368C32.194 152.843 33.0526 154.378 33.0978 154.514C33.143 154.649 34.1824 157.472 34.1824 157.472" fill="#FC8975"/>
<path d="M34.1816 149.997C33.3681 151.217 32.8485 152.594 33.8427 153.904C33.9556 154.04 34.2042 153.972 34.159 153.769C33.9782 153.091 33.7071 152.481 33.8427 151.759C33.933 151.217 34.2268 150.629 34.4301 150.132C34.4979 149.974 34.272 149.839 34.1816 149.997Z" fill="#CC6658"/>
<path d="M162.298 190.853C162.298 190.853 143.092 197.922 138.731 197.922C135.139 197.922 128.993 188.188 120.497 181.57C115.209 177.437 109.222 175.201 109.222 175.201L93.179 174.863C90.1739 174.863 84.1409 175.269 78.605 176.037C70.6289 177.121 63.1498 176.76 59.6702 175.201C52.9368 172.198 36.0806 154.085 36.0806 154.085C36.0806 154.085 34.4764 153.746 33.0303 155.191C33.0303 156.095 41.7069 180.825 53.1401 188.233C61.5456 193.676 73.8148 194.579 81.4521 194.534C81.4521 196.341 81.4521 197.809 81.4521 199.638C81.4521 202.145 78.4469 214.521 81.9943 218.09C85.2481 221.342 97.6981 221.748 102.556 221.748C109.764 221.748 117.13 220.597 118.983 218.09C119.909 216.825 119.774 211.179 119.48 206.029C125.242 209.666 130.461 213.257 137.104 213.257C149.554 213.257 164.219 193.789 164.219 193.789L162.298 190.853Z" fill="url(#paint29_linear)"/>
<path opacity="0.75" d="M119.639 209.598L119.48 206.007L114.08 200.564L119.639 209.598Z" fill="url(#paint30_linear)"/>
<path opacity="0.75" d="M81.4289 194.534C81.4289 193.901 82.5135 187.736 82.5135 186.742C80.8866 190.22 78.4463 194.511 78.4463 194.511L81.4289 194.534Z" fill="url(#paint31_linear)"/>
<path d="M106.464 146.361C110.984 149.184 110.215 154.943 112.045 158.557C113.379 161.154 115.435 163.367 115.638 166.461C115.841 169.849 111.458 171.407 109.108 171.046C104.499 170.323 100.544 172.672 95.8898 172.107C92.7265 171.723 93.924 170.142 91.8453 167.703C90.6025 166.235 89.9924 164.316 89.8117 162.419C89.6535 160.499 89.9021 158.579 90.2184 156.705" fill="#F42A73"/>
<path d="M98.082 165.942L97.1782 174.23L93.1562 174.863C93.1562 174.863 95.9581 179.922 100.432 179.922C104.906 179.922 109.199 175.201 109.199 175.201L104.838 173.846L103.189 162.193" fill="#FC8975"/>
<path d="M91.4842 152.414C91.213 155.191 90.9644 158.015 91.5745 160.747C92.1846 163.457 93.8115 166.1 96.3647 167.229C97.5171 167.726 98.805 167.907 100.048 167.952C102.172 168.042 104.431 167.794 106.103 166.506C108.069 164.993 108.837 162.328 108.679 159.866C108.521 157.405 107.549 155.056 106.623 152.775C105.742 150.652 104.861 148.506 103.979 146.383" fill="#FC8975"/>
<path d="M81.1581 163.457C80.2769 164.541 79.2149 165.625 79.0567 167.026C78.9211 168.403 79.8024 169.781 81.0677 170.346C82.1749 170.843 83.2368 170.684 84.4118 170.594C85.6997 170.504 87.0103 170.504 88.2756 170.752C89.3602 170.955 90.3996 171.362 91.4615 171.656C93.0206 172.107 94.6927 172.356 96.2969 172.085C96.5681 172.039 96.8844 171.949 97.02 171.701C97.1556 171.43 97.02 171.091 96.8844 170.82C95.8902 168.72 95.8676 166.303 96.071 163.999C96.1614 162.802 96.3195 161.628 96.6359 160.476C96.907 159.505 97.3137 158.602 97.7204 157.698C98.5113 155.959 99.4829 154.311 100.251 152.549C100.974 150.81 101.449 148.122 103.866 148.484C105.425 148.71 106.103 151.239 107.143 152.775C108.702 151.013 110.442 149.929 107.143 145.751C105.493 143.651 102.669 143.764 100.183 144.215C98.7824 144.125 98.8728 143.56 97.4719 143.47C92.885 143.154 87.9593 146.27 85.9709 150.471C83.6888 155.146 84.2084 159.686 81.1581 163.457Z" fill="#F42A73"/>
<path d="M96.8849 164.948C96.5234 164.925 96.1845 164.858 95.8455 164.79C95.0547 164.587 93.9476 164.135 93.1793 163.073C92.9082 162.69 92.7726 162.328 92.75 161.989C92.75 161.899 92.8178 161.831 92.9082 161.831C92.9985 161.831 93.0663 161.899 93.0663 161.989C93.0663 162.283 93.2019 162.577 93.4278 162.915C94.1283 163.887 95.1677 164.316 95.9133 164.496C96.9075 164.745 97.9695 164.7 98.8959 164.654C98.9863 164.654 99.0541 164.722 99.0767 164.812C99.0767 164.903 99.0089 164.971 98.9185 164.993C98.2632 164.971 97.5854 164.993 96.8849 164.948Z" fill="#081466"/>
<path d="M99.6195 164.383C99.3484 164.248 99.0095 164.248 98.7157 164.338C97.6989 164.654 98.8061 165.964 99.7325 165.287C99.8003 165.242 99.8681 165.174 99.9133 165.084C100.049 164.835 99.8907 164.519 99.6195 164.383Z" fill="#081466"/>
<path d="M90.0156 154.13C90.2642 151.894 91.1002 149.319 92.5011 147.58C94.3087 145.322 96.7264 143.47 99.0538 143.47C100.997 143.47 101.969 143.922 101.969 143.922C99.5735 144.486 97.5399 145.616 95.6419 147.58C93.7439 149.523 92.6367 152.21 92.5915 154.943" fill="#081466"/>
<path d="M95.8907 157.856C96.1618 160.386 94.4672 162.644 92.1173 162.893C89.7674 163.141 87.6434 161.267 87.3722 158.737C87.1011 156.208 88.7958 153.949 91.1457 153.701C93.4956 153.475 95.6196 155.327 95.8907 157.856Z" fill="#081466"/>
<path d="M93.8572 158.263C94.038 160.002 92.9308 161.538 91.3943 161.696C89.8579 161.854 88.4569 160.567 88.2762 158.828C88.0954 157.089 89.2026 155.553 90.7391 155.395C92.2982 155.259 93.6765 156.524 93.8572 158.263Z" fill="#2D4CBA"/>
<path d="M358.809 47.6886L352.076 50.5116C351.33 50.8278 351.172 51.8215 351.782 52.341L356.617 56.4966C357.227 57.016 358.176 56.7224 358.38 55.9545L360.278 48.9759C360.526 48.1177 359.645 47.3498 358.809 47.6886Z" stroke="#CFE0F5" stroke-miterlimit="10"/>
<path d="M69.2945 135.611L71.2603 142.634C71.4862 143.425 72.4352 143.696 73.0453 143.154L77.7677 138.863C78.3552 138.321 78.197 137.35 77.4514 137.056L70.7632 134.323C69.9272 133.962 69.0685 134.73 69.2945 135.611Z" stroke="#CFE0F5" stroke-miterlimit="10"/>
<path d="M497.702 219.919L502.877 214.77C503.442 214.205 503.216 213.234 502.447 212.963L496.414 210.93C495.646 210.682 494.9 211.292 494.991 212.082L495.849 219.264C495.962 220.19 497.07 220.574 497.702 219.919Z" stroke="#CFE0F5" stroke-miterlimit="10"/>
<path d="M473.481 140.195L475.379 147.242C475.583 148.032 476.554 148.303 477.164 147.761L481.932 143.538C482.519 142.996 482.361 142.025 481.638 141.731L474.972 138.93C474.114 138.546 473.233 139.314 473.481 140.195Z" stroke="#CFE0F5" stroke-miterlimit="10"/>
<path d="M451.221 125.71L447.899 128.247L450.438 131.567L453.759 129.029L451.221 125.71Z" fill="#CFE0F5"/>
<path d="M421.142 97.1218L416.966 97.3077L417.152 101.482L421.328 101.296L421.142 97.1218Z" fill="#CFE0F5"/>
<path d="M153.149 151.106L149.255 152.624L150.773 156.517L154.668 154.999L153.149 151.106Z" fill="#CFE0F5"/>
<path d="M194.618 51.0336L190.715 49.5382L189.219 53.4398L193.122 54.9351L194.618 51.0336Z" fill="#CFE0F5"/>
<path d="M30.5402 257.699L26.3643 257.885L26.5503 262.059L30.7262 261.873L30.5402 257.699Z" fill="#CFE0F5"/>
<defs>
<linearGradient id="paint0_linear" x1="272.892" y1="406.845" x2="272.892" y2="361.219" gradientUnits="userSpaceOnUse">
<stop offset="0.00510204" stop-color="#FCF5F1"/>
<stop offset="0.4771" stop-color="#FCEFED"/>
<stop offset="1" stop-color="#FCE1E3"/>
</linearGradient>
<linearGradient id="paint1_linear" x1="448.576" y1="361.219" x2="448.576" y2="193.469" gradientUnits="userSpaceOnUse">
<stop stop-color="#466DE5"/>
<stop offset="1" stop-color="#78BFFF"/>
</linearGradient>
<linearGradient id="paint2_linear" x1="479.933" y1="361.219" x2="479.933" y2="244.219" gradientUnits="userSpaceOnUse">
<stop stop-color="#466DE5"/>
<stop offset="1" stop-color="#78BFFF"/>
</linearGradient>
<linearGradient id="paint3_linear" x1="189.775" y1="333.101" x2="112.936" y2="256.226" gradientUnits="userSpaceOnUse">
<stop stop-color="#466DE5"/>
<stop offset="1" stop-color="#78BFFF"/>
</linearGradient>
<linearGradient id="paint4_linear" x1="79.4661" y1="361.219" x2="79.4661" y2="216.966" gradientUnits="userSpaceOnUse">
<stop stop-color="#466DE5"/>
<stop offset="1" stop-color="#78BFFF"/>
</linearGradient>
<linearGradient id="paint5_linear" x1="48.94" y1="359.297" x2="54.6231" y2="274.241" gradientUnits="userSpaceOnUse">
<stop stop-color="#466DE5"/>
<stop offset="1" stop-color="#78BFFF"/>
</linearGradient>
<linearGradient id="paint6_linear" x1="46.1902" y1="365.276" x2="70.6941" y2="322.814" gradientUnits="userSpaceOnUse">
<stop stop-color="#466DE5"/>
<stop offset="1" stop-color="#78BFFF"/>
</linearGradient>
<linearGradient id="paint7_linear" x1="221.157" y1="284.676" x2="217.427" y2="145.637" gradientUnits="userSpaceOnUse">
<stop stop-color="#29225E"/>
<stop offset="1" stop-color="#3F368C"/>
</linearGradient>
<linearGradient id="paint8_linear" x1="207.228" y1="285.066" x2="203.498" y2="146.019" gradientUnits="userSpaceOnUse">
<stop stop-color="#29225E"/>
<stop offset="1" stop-color="#3F368C"/>
</linearGradient>
<linearGradient id="paint9_linear" x1="227.699" y1="112.927" x2="291.256" y2="82.5696" gradientUnits="userSpaceOnUse">
<stop stop-color="#FCC73C"/>
<stop offset="1" stop-color="#FC7A3C"/>
</linearGradient>
<linearGradient id="paint10_linear" x1="370.63" y1="410.913" x2="205.418" y2="124.622" gradientUnits="userSpaceOnUse">
<stop stop-color="#B3D3F4"/>
<stop offset="1" stop-color="#D3DCED"/>
</linearGradient>
<linearGradient id="paint11_linear" x1="297.675" y1="352.489" x2="297.675" y2="115.871" gradientUnits="userSpaceOnUse">
<stop stop-color="#FFD5A7"/>
<stop offset="0.372" stop-color="#FFD7AA"/>
<stop offset="0.6545" stop-color="#FFDEB4"/>
<stop offset="0.9067" stop-color="#FFE9C4"/>
<stop offset="1" stop-color="#FFEECC"/>
</linearGradient>
<linearGradient id="paint12_linear" x1="370.629" y1="410.913" x2="223.964" y2="156.76" gradientUnits="userSpaceOnUse">
<stop stop-color="#CDE8FF"/>
<stop offset="1" stop-color="#EEE7E9"/>
</linearGradient>
<linearGradient id="paint13_linear" x1="369.094" y1="442.152" x2="225.463" y2="298.453" gradientUnits="userSpaceOnUse">
<stop stop-color="#CDE8FF"/>
<stop offset="1" stop-color="#EEE7E9"/>
</linearGradient>
<linearGradient id="paint14_linear" x1="436.896" y1="383.109" x2="399.285" y2="325.934" gradientUnits="userSpaceOnUse">
<stop stop-color="#466DE5"/>
<stop offset="1" stop-color="#78BFFF"/>
</linearGradient>
<linearGradient id="paint15_linear" x1="208.904" y1="106.685" x2="171.887" y2="141.662" gradientUnits="userSpaceOnUse">
<stop stop-color="#FCC73C"/>
<stop offset="1" stop-color="#FC7A3C"/>
</linearGradient>
<linearGradient id="paint16_linear" x1="448.317" y1="377.937" x2="448.317" y2="246.614" gradientUnits="userSpaceOnUse">
<stop stop-color="#29225E"/>
<stop offset="1" stop-color="#3F368C"/>
</linearGradient>
<linearGradient id="paint17_linear" x1="465.551" y1="377.937" x2="465.551" y2="246.614" gradientUnits="userSpaceOnUse">
<stop stop-color="#29225E"/>
<stop offset="1" stop-color="#3F368C"/>
</linearGradient>
<linearGradient id="paint18_linear" x1="435.556" y1="201.367" x2="435.556" y2="252.127" gradientUnits="userSpaceOnUse">
<stop stop-color="#FCC73C"/>
<stop offset="1" stop-color="#FC7A3C"/>
</linearGradient>
<linearGradient id="paint19_linear" x1="433.273" y1="194.638" x2="434.904" y2="194.638" gradientUnits="userSpaceOnUse">
<stop stop-color="#FCC73C"/>
<stop offset="1" stop-color="#FC7A3C"/>
</linearGradient>
<linearGradient id="paint20_linear" x1="446.276" y1="245.723" x2="408.839" y2="208.269" gradientUnits="userSpaceOnUse">
<stop stop-color="#5789EE"/>
<stop offset="1" stop-color="#78BFFF"/>
</linearGradient>
<linearGradient id="paint21_linear" x1="438.005" y1="213.437" x2="481.102" y2="213.437" gradientUnits="userSpaceOnUse">
<stop stop-color="#FCC73C"/>
<stop offset="1" stop-color="#FC7A3C"/>
</linearGradient>
<linearGradient id="paint22_linear" x1="464.97" y1="201.367" x2="464.97" y2="244.767" gradientUnits="userSpaceOnUse">
<stop stop-color="#FCC73C"/>
<stop offset="1" stop-color="#FC7A3C"/>
</linearGradient>
<linearGradient id="paint23_linear" x1="456.619" y1="186.388" x2="456.619" y2="178.349" gradientUnits="userSpaceOnUse">
<stop stop-color="#FCAE3C"/>
<stop offset="1" stop-color="#FC7A3C"/>
</linearGradient>
<linearGradient id="paint24_linear" x1="450.825" y1="185.758" x2="450.825" y2="178.127" gradientUnits="userSpaceOnUse">
<stop stop-color="#FCAE3C"/>
<stop offset="1" stop-color="#FC7A3C"/>
</linearGradient>
<linearGradient id="paint25_linear" x1="89.1259" y1="376.67" x2="89.1259" y2="207.807" gradientUnits="userSpaceOnUse">
<stop stop-color="#29225E"/>
<stop offset="1" stop-color="#3F368C"/>
</linearGradient>
<linearGradient id="paint26_linear" x1="98.1279" y1="297.863" x2="98.1279" y2="259.879" gradientUnits="userSpaceOnUse">
<stop stop-color="#29225E"/>
<stop offset="1" stop-color="#3F368C"/>
</linearGradient>
<linearGradient id="paint27_linear" x1="113.146" y1="376.67" x2="113.146" y2="207.807" gradientUnits="userSpaceOnUse">
<stop stop-color="#29225E"/>
<stop offset="1" stop-color="#3F368C"/>
</linearGradient>
<linearGradient id="paint28_linear" x1="101.286" y1="226.159" x2="101.286" y2="209.844" gradientUnits="userSpaceOnUse">
<stop stop-color="#29225E"/>
<stop offset="1" stop-color="#3F368C"/>
</linearGradient>
<linearGradient id="paint29_linear" x1="98.608" y1="175.486" x2="98.608" y2="222.746" gradientUnits="userSpaceOnUse">
<stop stop-color="#FCC73C"/>
<stop offset="1" stop-color="#FC7A3C"/>
</linearGradient>
<linearGradient id="paint30_linear" x1="116.863" y1="203.431" x2="116.863" y2="209.74" gradientUnits="userSpaceOnUse">
<stop stop-color="#FCC73C"/>
<stop offset="1" stop-color="#FC7A3C"/>
</linearGradient>
<linearGradient id="paint31_linear" x1="78.4533" y1="190.647" x2="82.5214" y2="190.647" gradientUnits="userSpaceOnUse">
<stop stop-color="#FCC73C"/>
<stop offset="1" stop-color="#FC7A3C"/>
</linearGradient>
</defs>
</svg>
